# xmcd CD database file
#
# Track frame offsets:
#	150
#	12735
#	27156
#	38673
#	51030
#	63002
#	73641
#	86512
#	100235
#	112854
#	123173
#	134537
#	146103
#	158978
#	170754
#	185725
#	197715
#	211127
#	223445
#	234377
#
# Disc length: 3296 seconds
#
# Revision: 0
# Processed by: cddbd v1.5.1PL0 Copyright (c) Steve Scherf et al.
# Submitted via: CDex 1.50
#
DISCID=250cde14
DTITLE=Jazz and Dintorni # 48 - Bix Beiderbecke
DYEAR=1900
DGENRE=Jazz
TTITLE0=Davenport Blues
TTITLE1=I'm Glad
TTITLE2=Chicago Blues
TTITLE3=Really a Pain
TTITLE4=Steady Roll Blues
TTITLE5=Buddy's Habits
TTITLE6=Hot Mittens
TTITLE7=Someday Sweetheart
TTITLE8=Jazz Me Blues
TTITLE9=Oh Baby
TTITLE10=Copenaghen
TTITLE11=Riverboat Shuffle
TTITLE12=Big Boy
TTITLE13=Tiger Rag
TTITLE14=Prince of Wails
TTITLE15=Susie
TTITLE16=Tia Juana
TTITLE17=Lazy Daddy
TTITLE18=Fidgety Feet
TTITLE19=Royal Garden Blues
EXTD=
EXTT0=
EXTT1=
EXTT2=
EXTT3=
EXTT4=
EXTT5=
EXTT6=
EXTT7=
EXTT8=
EXTT9=
EXTT10=
EXTT11=
EXTT12=
EXTT13=
EXTT14=
EXTT15=
EXTT16=
EXTT17=
EXTT18=
EXTT19=
PLAYORDER=
